<svg xmlns="http://www.w3.org/2000/svg" xmlns:xlink="http://www.w3.org/1999/xlink" width="39" height="39" viewBox="0 0 39 39">
    <defs>
        <path id="a" d="M.017.166h5.9v5.727h-5.9z"/>
        <path id="c" d="M.1.184h5.738V15H.101z"/>
        <path id="e" d="M.109.009h5.737v14.816H.11z"/>
        <path id="g" d="M0 .167h14.816v5.738H0z"/>
        <path id="i" d="M.018.183h14.974V15H.018z"/>
    </defs>
    <g fill="none" fill-rule="evenodd">
        <path fill="#008D6C" d="M11 14a3 3 0 1 1 0-6 3 3 0 0 1 0 6"/>
        <g>
            <mask id="b" fill="#fff">
                <use xlink:href="#a"/>
            </mask>
            <path fill="#008D6C" d="M2.967 5.893c-1.629 0-2.95-1.282-2.95-2.864 0-1.58 1.321-2.863 2.95-2.863 1.63 0 2.95 1.282 2.95 2.863 0 1.582-1.32 2.864-2.95 2.864" mask="url(#b)"/>
        </g>
        <path fill="#008D6C" d="M6 19a3 3 0 1 1-6 0 3 3 0 0 1 6 0M14 19a3 3 0 1 1-6 0 3 3 0 0 1 6 0M22 19a3 3 0 1 1-6 0 3 3 0 0 1 6 0M14 27a3 3 0 1 1-6 0 3 3 0 0 1 6 0M6 36a3 3 0 1 1-6 0 3 3 0 0 1 6 0M30 11a3 3 0 1 1-6 0 3 3 0 0 1 6 0M30 19a3 3 0 1 1-6 0 3 3 0 0 1 6 0M30 27a3 3 0 1 1-6 0 3 3 0 0 1 6 0M39 27a3 3 0 1 1-6 0 3 3 0 0 1 6 0M30 36a3 3 0 1 1-6 0 3 3 0 0 1 6 0M39 36a3 3 0 1 1-6 0 3 3 0 0 1 6 0"/>
        <g transform="translate(8 24)">
            <mask id="d" fill="#fff">
                <use xlink:href="#c"/>
            </mask>
            <path fill="#008D6C" d="M4.997 14.078c1.058-1.165 1.118-3.016.18-4.26h.008C4.068 8.582 4.07 6.58 5.19 5.348H5.18c.921-1.24.86-3.074-.188-4.234-1.117-1.237-2.93-1.24-4.05-.007C-.116 2.27-.176 4.122.762 5.366H.757c.024.026.046.053.069.08a2.8 2.8 0 0 0 .042.05c1.004 1.244.964 3.15-.117 4.34h.01c-.922 1.24-.86 3.074.187 4.235 1.117 1.236 2.93 1.24 4.05.007" mask="url(#d)"/>
        </g>
        <g transform="translate(33 8)">
            <mask id="f" fill="#fff">
                <use xlink:href="#e"/>
            </mask>
            <path fill="#008D6C" d="M5.005 13.902c1.058-1.164 1.118-3.015.18-4.259h.008c-1.117-1.236-1.114-3.238.006-4.47h-.011c.922-1.24.86-3.074-.188-4.235C3.883-.298 2.07-.302.95.931-.108 2.096-.168 3.947.77 5.191H.765c.024.026.046.053.069.08l.042.05c1.004 1.244.964 3.15-.117 4.34h.01c-.922 1.24-.86 3.074.187 4.235 1.117 1.236 2.93 1.239 4.05.006" mask="url(#f)"/>
        </g>
        <g transform="translate(0 24)">
            <mask id="h" fill="#fff">
                <use xlink:href="#g"/>
            </mask>
            <path fill="#008D6C" d="M13.893 1.008C12.73-.05 10.878-.11 9.634.828V.82C8.398 1.937 6.396 1.934 5.164.814v.012c-1.24-.922-3.074-.86-4.235.188C-.307 2.13-.31 3.944.923 5.064c1.164 1.058 3.015 1.118 4.259.179v.007l.08-.07.05-.042c1.244-1.003 3.15-.964 4.34.118v-.01c1.24.922 3.074.86 4.234-.188 1.237-1.116 1.24-2.93.007-4.05" mask="url(#h)"/>
        </g>
        <path fill="#008D6C" d="M38.066.88C36.887-.227 35.013-.29 33.754.692V.683c-1.252 1.168-3.278 1.165-4.526-.006v.012c-1.256-.964-3.112-.9-4.287.196-1.252 1.168-1.255 3.064-.007 4.235 1.18 1.107 3.053 1.17 4.312.188v.007l.081-.072.052-.045c1.258-1.049 3.188-1.007 4.393.123v-.01c1.256.964 3.112.9 4.287-.196 1.252-1.168 1.255-3.064.007-4.235"/>
        <g>
            <mask id="j" fill="#fff">
                <use xlink:href="#i"/>
            </mask>
            <path fill="#008D6C" d="M6.421 11.932l.003.002c0-2.998 2.462-5.429 5.5-5.429l-.004-.003c1.708-.068 3.072-1.455 3.072-3.158 0-1.746-1.434-3.16-3.202-3.16-1.737 0-3.15 1.364-3.2 3.067l-.003-.003c0 2.999-2.462 5.429-5.5 5.429l.003.003C1.382 8.748.018 10.135.018 11.838c0 1.746 1.434 3.161 3.203 3.161 1.737 0 3.15-1.365 3.2-3.067" mask="url(#j)"/>
        </g>
    </g>
</svg>
